<svg width="5295" height="1396" viewBox="0 0 5295 1396" fill="none" xmlns="http://www.w3.org/2000/svg">
<path d="M4539.29 614.022V530.999L4720.2 318.655H4869.16L4646.72 572.946L4539.29 614.022Z" fill="black"/>
<path d="M4646.72 572.76L4869.16 827.051H4720.2L4539.29 614.707V531.684L4646.72 572.76Z" fill="black"/>
<path d="M2472.07 555.813H2561.97V627.087C2561.97 633.701 2559.8 639.445 2555.54 644.231C2551.28 649.018 2544.94 651.454 2536.78 651.454H2472.07V827.334H2365.33V651.454H2063.95C2055.69 651.454 2048.49 648.844 2042.23 643.709C2035.98 638.575 2032.07 632.135 2030.42 624.563L2018 562.253L2356.47 106.409H2472.07V555.813ZM2365.33 320.146C2365.33 309.528 2365.68 298.041 2366.37 285.77C2366.98 273.5 2368.2 260.707 2369.85 247.392L2147.93 555.813H2365.33V320.146Z" fill="black"/>
<path d="M2979.99 728.649C3009.95 728.649 3036.1 725.951 3058.33 720.468C3080.57 714.985 3101.76 707.414 3121.82 697.841V566.693H3032.36C3023.76 566.693 3017.08 564.256 3012.13 559.47C3007.17 554.683 3004.74 548.765 3004.74 541.803V466.09H3242.46V757.541C3224.31 770.856 3205.46 782.344 3185.92 792.178C3166.29 802.012 3145.36 810.018 3123.12 816.371C3100.89 822.724 3077.09 827.423 3051.73 830.556C3026.37 833.689 2999.01 835.256 2969.74 835.256C2917.72 835.256 2869.77 826.118 2826 807.842C2782.14 789.567 2744.27 764.155 2712.31 731.607C2680.34 699.06 2655.42 660.246 2637.44 615.079C2619.46 569.913 2610.51 520.569 2610.51 467.135C2610.51 413.004 2619.2 363.312 2636.66 318.146C2654.11 272.979 2678.95 234.165 2711 201.618C2743.14 169.07 2782.05 143.832 2827.91 125.905C2873.68 107.977 2925.01 99.0137 2982.07 99.0137C3040.35 99.0137 3090.9 107.716 3133.55 125.209C3176.19 142.614 3212.41 165.328 3242.03 193.176L3203.46 253.92C3195.91 266.191 3185.83 272.37 3173.33 272.37C3165.42 272.37 3157.35 269.759 3149.09 264.364C3138.5 258.098 3127.81 251.745 3116.7 245.392C3105.67 239.126 3093.51 233.643 3080.13 228.944C3066.76 224.331 3051.82 220.502 3035.14 217.456C3018.47 214.497 2999.27 213.018 2977.56 213.018C2942.29 213.018 2910.42 219.023 2881.93 230.945C2853.44 242.868 2829.12 260.012 2809.06 282.291C2789 304.57 2773.54 331.287 2762.59 362.529C2751.74 393.772 2746.27 428.582 2746.27 467.135C2746.27 508.646 2752 545.632 2763.55 578.006C2775.1 610.38 2791.17 637.706 2811.93 659.985C2832.69 682.264 2857.35 699.234 2886.01 711.069C2914.76 722.731 2946.12 728.649 2979.99 728.649Z" fill="black"/>
<path d="M3568.95 308.228C3600.91 308.228 3630.27 313.362 3657.11 323.631C3683.94 333.9 3707.05 348.956 3726.5 368.711C3745.96 388.466 3761.07 412.746 3772.01 441.465C3782.87 470.183 3788.34 502.992 3788.34 539.891C3788.34 549.203 3787.91 556.949 3787.13 563.04C3786.34 569.219 3784.78 574.006 3782.7 577.487C3780.52 580.968 3777.66 583.492 3774.1 584.971C3770.45 586.45 3765.85 587.234 3760.29 587.234H3447.01C3450.65 639.71 3464.64 678.263 3489.04 702.805C3513.36 727.433 3545.67 739.704 3585.89 739.704C3605.69 739.704 3622.71 737.354 3637.04 732.742C3651.37 728.129 3663.88 722.995 3674.56 717.338C3685.25 711.681 3694.63 706.547 3702.7 701.934C3710.78 697.322 3718.6 694.972 3726.15 694.972C3731.11 694.972 3735.36 695.929 3739.01 697.931C3742.66 699.933 3745.78 702.718 3748.39 706.373L3784 751.191C3770.45 767.117 3755.34 780.519 3738.49 791.31C3721.72 802.101 3704.18 810.717 3685.85 817.244C3667.61 823.684 3648.94 828.296 3630.01 830.907C3611.07 833.518 3592.75 834.91 3574.94 834.91C3539.68 834.91 3506.93 828.993 3476.62 817.244C3446.31 805.496 3419.99 788.003 3397.59 764.941C3375.18 741.879 3357.55 713.335 3344.69 679.22C3331.84 645.193 3325.41 605.77 3325.41 560.952C3325.41 526.054 3330.97 493.245 3342.17 462.525C3353.38 431.805 3369.45 405.088 3390.38 382.287C3411.31 359.573 3436.84 341.559 3466.98 328.244C3497.03 314.842 3531.08 308.228 3568.95 308.228ZM3571.38 396.385C3535.77 396.385 3507.98 406.48 3487.91 426.757C3467.85 447.034 3454.91 475.753 3449.35 512.913H3678.65C3678.65 496.987 3676.47 481.932 3672.22 467.834C3667.96 453.735 3661.36 441.378 3652.42 430.673C3643.56 420.056 3632.35 411.702 3618.8 405.523C3605.34 399.431 3589.53 396.385 3571.38 396.385Z" fill="black"/>
<path d="M4097.11 308.228C4129.07 308.228 4158.43 313.362 4185.35 323.631C4212.19 333.9 4235.3 348.956 4254.75 368.711C4274.21 388.466 4289.32 412.746 4300.26 441.465C4311.12 470.183 4316.59 502.992 4316.59 539.891C4316.59 549.203 4316.16 556.949 4315.37 563.04C4314.59 569.219 4313.03 574.006 4310.95 577.487C4308.77 580.968 4305.91 583.492 4302.35 584.971C4298.7 586.45 4294.1 587.234 4288.54 587.234H3975.25C3978.9 639.71 3992.89 678.263 4017.29 702.805C4041.61 727.433 4073.92 739.704 4114.13 739.704C4133.94 739.704 4150.96 737.354 4165.29 732.742C4179.62 728.129 4192.13 722.995 4202.81 717.338C4213.5 711.681 4222.88 706.547 4230.95 701.934C4239.03 697.322 4246.85 694.972 4254.4 694.972C4259.35 694.972 4263.61 695.929 4267.26 697.931C4270.91 699.933 4274.03 702.718 4276.64 706.373L4312.25 751.191C4298.7 767.117 4283.59 780.519 4266.74 791.31C4249.97 802.101 4232.43 810.717 4214.1 817.244C4195.86 823.684 4177.19 828.296 4158.26 830.907C4139.32 833.518 4121 834.91 4103.19 834.91C4067.93 834.91 4035.18 828.993 4004.87 817.244C3974.56 805.496 3948.24 788.003 3925.83 764.941C3903.43 741.879 3885.8 713.335 3872.94 679.22C3860.09 645.193 3853.66 605.77 3853.66 560.952C3853.66 526.054 3859.22 493.245 3870.42 462.525C3881.63 431.805 3897.69 405.088 3918.63 382.287C3939.56 359.573 3965.09 341.559 3995.23 328.244C4025.2 314.842 4059.24 308.228 4097.11 308.228ZM4099.63 396.385C4064.02 396.385 4036.23 406.48 4016.16 426.757C3996.1 447.034 3983.16 475.753 3977.6 512.913H4206.89C4206.89 496.987 4204.72 481.932 4200.47 467.834C4196.21 453.735 4189.61 441.378 4180.66 430.673C4171.81 420.056 4160.6 411.702 4147.05 405.523C4133.5 399.431 4117.7 396.385 4099.63 396.385Z" fill="black"/>
<path d="M4539.28 593.145V827.245H4417.25V87H4539.28V510.905" fill="black"/>
<path d="M5261.65 415.779C5258.35 421.087 5254.87 424.829 5251.31 427.005C5247.66 429.181 5243.06 430.225 5237.5 430.225C5231.6 430.225 5225.26 428.571 5218.48 425.264C5211.71 421.957 5203.89 418.215 5195.03 414.038C5186.17 409.861 5176.01 406.119 5164.63 402.812C5153.25 399.505 5139.88 397.851 5124.33 397.851C5100.27 397.851 5081.34 402.986 5067.53 413.255C5053.72 423.524 5046.77 437.013 5046.77 453.635C5046.77 464.6 5050.33 473.825 5057.45 481.309C5064.49 488.794 5073.87 495.321 5085.59 500.977C5097.23 506.634 5110.52 511.682 5125.37 516.207C5140.23 520.732 5155.34 525.606 5170.89 530.914C5186.35 536.223 5201.54 542.315 5216.4 549.103C5231.25 555.891 5244.45 564.507 5256.18 575.037C5267.9 585.48 5277.28 598.012 5284.32 612.632C5291.44 627.252 5295 644.832 5295 665.457C5295 689.998 5290.57 712.712 5281.62 733.424C5272.77 754.224 5259.74 772.151 5242.63 787.207C5225.52 802.349 5204.32 814.098 5179.14 822.539C5153.95 830.981 5125.03 835.245 5092.46 835.245C5075 835.245 5057.98 833.679 5041.3 830.546C5024.62 827.413 5008.64 822.974 4993.36 817.318C4978.07 811.661 4963.83 805.047 4950.88 797.389C4937.86 789.73 4926.39 781.463 4916.58 772.499L4944.72 725.679C4948.37 720.022 4952.62 715.671 4957.57 712.712C4962.52 709.753 4968.78 708.187 4976.33 708.187C4983.89 708.187 4991.1 710.362 4997.87 714.627C5004.65 718.978 5012.46 723.59 5021.32 728.551C5030.18 733.511 5040.69 738.211 5052.68 742.475C5064.66 746.826 5079.95 748.915 5098.36 748.915C5112.87 748.915 5125.29 747.175 5135.71 743.694C5146.05 740.212 5154.64 735.6 5161.42 730.03C5168.19 724.374 5173.14 717.847 5176.27 710.362C5179.4 702.878 5180.96 695.133 5180.96 687.214C5180.96 675.291 5177.4 665.457 5170.36 657.799C5163.24 650.14 5153.86 643.526 5142.22 637.87C5130.5 632.213 5117.21 627.165 5102.18 622.64C5087.16 618.202 5071.87 613.241 5056.24 607.933C5040.6 602.624 5025.32 596.358 5010.29 589.222C4995.27 582.086 4981.98 573.035 4970.25 562.07C4958.61 551.104 4949.15 537.702 4942.11 521.69C4934.99 505.764 4931.52 486.531 4931.52 463.904C4931.52 443.018 4935.6 423.089 4943.85 404.117C4952.1 385.145 4964.17 368.697 4980.15 354.512C4996.14 340.327 5016.02 329.101 5039.91 320.659C5063.79 312.217 5091.33 307.953 5122.68 307.953C5157.6 307.953 5189.39 313.784 5218.05 325.358C5246.71 337.02 5270.59 352.249 5289.7 371.221L5261.65 415.779Z" fill="black"/>
<path d="M139.975 1042.47H212.266V1121.47C212.266 1272.91 335.806 1395.7 488.217 1395.7H1179.82C1332.23 1395.7 1455.77 1272.91 1455.77 1121.47V1042.47H1565.82C1600.19 1042.47 1628.06 1014.75 1628.06 980.632V649.485H1671.2C1687.52 649.485 1701.02 636.235 1701.02 619.893V588.258C1701.02 571.916 1687.69 558.666 1671.37 558.666H1628.22V497.438C1628.22 463.319 1600.3 435.549 1565.98 435.549H1464.26C1450.6 347.489 1368.15 313.37 1368.15 313.37C1616.06 239.499 1467.26 14.0237 1467.26 14.0237C1416.9 109.371 1353.11 120.744 1244.95 113.29C1134.12 105.672 627.97 -134.6 355.739 108.487C223.537 226.58 195.609 346.109 200.217 435.549H139.975C105.661 435.549 77.7328 463.264 77.7328 497.438V558.666H29.7606C13.4367 558.666 0 571.916 0 588.258V619.893C0 636.125 13.3256 649.485 29.7606 649.485H77.7328V980.632C77.7328 1014.75 105.661 1042.47 139.975 1042.47ZM1050.95 567.555C1050.95 546.961 1067.72 530.288 1088.43 530.288H1495.19C1515.9 530.288 1532.67 546.961 1532.67 567.555V911.123C1532.67 931.717 1515.9 948.39 1495.19 948.39H1088.43C1067.72 948.39 1050.95 931.717 1050.95 911.123V567.555ZM173.344 567.555C173.344 546.961 190.112 530.288 210.822 530.288H617.587C638.297 530.288 655.065 546.961 655.065 567.555V910.516C655.065 931.109 638.297 947.783 617.587 947.783H210.822C190.112 947.783 173.344 931.109 173.344 910.516V567.555Z" fill="black"/>
<path d="M2173.2 1193.63C2156.52 1194.41 2142.5 1195.89 2131.12 1198.07C2119.75 1200.09 2110.63 1202.74 2103.78 1206.01C2096.92 1209.29 2092.01 1213.1 2089.05 1217.47C2086.09 1221.83 2084.61 1226.58 2084.61 1231.72C2084.61 1241.85 2087.57 1249.1 2093.49 1253.46C2099.57 1257.82 2107.44 1260.01 2117.1 1260.01C2128.94 1260.01 2139.15 1257.9 2147.72 1253.7C2156.44 1249.33 2164.94 1242.79 2173.2 1234.06V1193.63ZM2040.91 1089.62C2068.49 1064.38 2101.67 1051.75 2140.47 1051.75C2154.5 1051.75 2167.04 1054.09 2178.1 1058.77C2189.17 1063.29 2198.52 1069.67 2206.15 1077.93C2213.79 1086.03 2219.55 1095.77 2223.45 1107.15C2227.5 1118.52 2229.52 1130.99 2229.52 1144.54V1296H2203.35C2197.89 1296 2193.69 1295.22 2190.72 1293.66C2187.76 1291.95 2185.43 1288.6 2183.71 1283.61L2178.57 1266.32C2172.49 1271.77 2166.57 1276.6 2160.81 1280.81C2155.04 1284.86 2149.04 1288.29 2142.81 1291.09C2136.58 1293.9 2129.88 1296 2122.71 1297.4C2115.7 1298.96 2107.91 1299.74 2099.34 1299.74C2089.21 1299.74 2079.86 1298.42 2071.29 1295.77C2062.72 1292.96 2055.32 1288.83 2049.09 1283.38C2042.85 1277.93 2038.02 1271.15 2034.59 1263.04C2031.17 1254.94 2029.45 1245.51 2029.45 1234.76C2029.45 1228.69 2030.47 1222.69 2032.49 1216.77C2034.52 1210.69 2037.79 1204.92 2042.31 1199.47C2046.98 1194.02 2052.98 1188.87 2060.3 1184.04C2067.63 1179.21 2076.59 1175.01 2087.18 1171.42C2097.93 1167.84 2110.4 1164.96 2124.58 1162.78C2138.76 1160.44 2154.96 1159.04 2173.2 1158.57V1144.54C2173.2 1128.5 2169.77 1116.65 2162.91 1109.02C2156.06 1101.23 2146.16 1097.33 2133.23 1097.33C2123.88 1097.33 2116.09 1098.42 2109.85 1100.6C2103.78 1102.79 2098.4 1105.28 2093.73 1108.08C2089.05 1110.73 2084.77 1113.15 2080.87 1115.33C2077.13 1117.51 2072.93 1118.6 2068.25 1118.6C2064.2 1118.6 2060.77 1117.59 2057.97 1115.56C2055.16 1113.38 2052.9 1110.89 2051.19 1108.08L2040.91 1089.62ZM2537.49 1106.91C2535.77 1109.1 2534.06 1110.81 2532.35 1112.06C2530.79 1113.3 2528.45 1113.93 2525.33 1113.93C2522.37 1113.93 2519.49 1113.07 2516.69 1111.36C2513.88 1109.49 2510.53 1107.46 2506.64 1105.28C2502.74 1102.94 2498.07 1100.92 2492.61 1099.2C2487.32 1097.33 2480.69 1096.4 2472.75 1096.4C2462.62 1096.4 2453.74 1098.27 2446.1 1102.01C2438.47 1105.59 2432.08 1110.81 2426.94 1117.67C2421.95 1124.52 2418.21 1132.86 2415.72 1142.67C2413.22 1152.34 2411.98 1163.32 2411.98 1175.63C2411.98 1188.41 2413.3 1199.78 2415.95 1209.75C2418.76 1219.73 2422.73 1228.14 2427.87 1235C2433.01 1241.7 2439.25 1246.84 2446.57 1250.42C2453.89 1253.85 2462.15 1255.57 2471.34 1255.57C2480.54 1255.57 2487.94 1254.47 2493.55 1252.29C2499.31 1249.96 2504.14 1247.46 2508.04 1244.81C2511.93 1242.01 2515.28 1239.52 2518.09 1237.33C2521.05 1235 2524.32 1233.83 2527.91 1233.83C2532.58 1233.83 2536.09 1235.62 2538.42 1239.2L2555.02 1260.24C2548.63 1267.72 2541.7 1274.03 2534.22 1279.17C2526.74 1284.16 2518.95 1288.21 2510.84 1291.33C2502.9 1294.29 2494.64 1296.39 2486.07 1297.64C2477.65 1298.88 2469.24 1299.51 2460.83 1299.51C2446.02 1299.51 2432.08 1296.78 2418.99 1291.33C2405.9 1285.72 2394.45 1277.61 2384.63 1267.02C2374.81 1256.42 2367.02 1243.49 2361.26 1228.22C2355.65 1212.79 2352.84 1195.26 2352.84 1175.63C2352.84 1158.02 2355.34 1141.74 2360.32 1126.78C2365.47 1111.67 2372.94 1098.66 2382.76 1087.75C2392.58 1076.69 2404.73 1068.04 2419.22 1061.8C2433.71 1055.57 2450.39 1052.46 2469.24 1052.46C2487.16 1052.46 2502.82 1055.34 2516.22 1061.1C2529.78 1066.87 2541.93 1075.13 2552.68 1085.88L2537.49 1106.91ZM2799.69 1193.63C2783.02 1194.41 2769 1195.89 2757.62 1198.07C2746.25 1200.09 2737.13 1202.74 2730.28 1206.01C2723.42 1209.29 2718.51 1213.1 2715.55 1217.47C2712.59 1221.83 2711.11 1226.58 2711.11 1231.72C2711.11 1241.85 2714.07 1249.1 2719.99 1253.46C2726.07 1257.82 2733.94 1260.01 2743.6 1260.01C2755.44 1260.01 2765.65 1257.9 2774.22 1253.7C2782.94 1249.33 2791.44 1242.79 2799.69 1234.06V1193.63ZM2667.4 1089.62C2694.98 1064.38 2728.17 1051.75 2766.97 1051.75C2781 1051.75 2793.54 1054.09 2804.6 1058.77C2815.67 1063.29 2825.01 1069.67 2832.65 1077.93C2840.29 1086.03 2846.05 1095.77 2849.95 1107.15C2854 1118.52 2856.02 1130.99 2856.02 1144.54V1296H2829.85C2824.39 1296 2820.18 1295.22 2817.22 1293.66C2814.26 1291.95 2811.93 1288.6 2810.21 1283.61L2805.07 1266.32C2798.99 1271.77 2793.07 1276.6 2787.31 1280.81C2781.54 1284.86 2775.54 1288.29 2769.31 1291.09C2763.08 1293.9 2756.38 1296 2749.21 1297.4C2742.2 1298.96 2734.41 1299.74 2725.84 1299.74C2715.71 1299.74 2706.36 1298.42 2697.79 1295.77C2689.22 1292.96 2681.82 1288.83 2675.59 1283.38C2669.35 1277.93 2664.52 1271.15 2661.09 1263.04C2657.67 1254.94 2655.95 1245.51 2655.95 1234.76C2655.95 1228.69 2656.96 1222.69 2658.99 1216.77C2661.02 1210.69 2664.29 1204.92 2668.81 1199.47C2673.48 1194.02 2679.48 1188.87 2686.8 1184.04C2694.13 1179.21 2703.09 1175.01 2713.68 1171.42C2724.43 1167.84 2736.9 1164.96 2751.08 1162.78C2765.26 1160.44 2781.46 1159.04 2799.69 1158.57V1144.54C2799.69 1128.5 2796.27 1116.65 2789.41 1109.02C2782.55 1101.23 2772.66 1097.33 2759.73 1097.33C2750.38 1097.33 2742.59 1098.42 2736.35 1100.6C2730.28 1102.79 2724.9 1105.28 2720.23 1108.08C2715.55 1110.73 2711.27 1113.15 2707.37 1115.33C2703.63 1117.51 2699.43 1118.6 2694.75 1118.6C2690.7 1118.6 2687.27 1117.59 2684.47 1115.56C2681.66 1113.38 2679.4 1110.89 2677.69 1108.08L2667.4 1089.62ZM3142.72 1117.43C3136.17 1109.49 3129.01 1103.88 3121.22 1100.6C3113.58 1097.33 3105.32 1095.7 3096.44 1095.7C3087.72 1095.7 3079.85 1097.33 3072.83 1100.6C3065.82 1103.88 3059.82 1108.86 3054.84 1115.56C3049.85 1122.11 3046.03 1130.52 3043.38 1140.8C3040.74 1150.93 3039.41 1162.93 3039.41 1176.8C3039.41 1190.82 3040.5 1202.74 3042.68 1212.56C3045.02 1222.22 3048.29 1230.17 3052.5 1236.4C3056.71 1242.48 3061.85 1246.92 3067.93 1249.72C3074 1252.37 3080.78 1253.7 3088.26 1253.7C3100.26 1253.7 3110.46 1251.2 3118.88 1246.22C3127.29 1241.23 3135.24 1234.14 3142.72 1224.95V1117.43ZM3200.45 948.681V1296H3165.16C3157.52 1296 3152.69 1292.49 3150.67 1285.48L3145.76 1262.34C3136.1 1273.41 3124.96 1282.37 3112.33 1289.22C3099.87 1296.08 3085.3 1299.51 3068.63 1299.51C3055.54 1299.51 3043.54 1296.78 3032.63 1291.33C3021.73 1285.87 3012.3 1278 3004.35 1267.72C2996.56 1257.28 2990.48 1244.42 2986.12 1229.15C2981.91 1213.88 2979.81 1196.43 2979.81 1176.8C2979.81 1159.04 2982.23 1142.52 2987.06 1127.25C2991.89 1111.98 2998.82 1098.73 3007.86 1087.52C3016.9 1076.3 3027.72 1067.57 3040.35 1061.34C3052.97 1054.95 3067.15 1051.75 3082.88 1051.75C3096.29 1051.75 3107.74 1053.86 3117.24 1058.07C3126.75 1062.27 3135.24 1067.96 3142.72 1075.13V948.681H3200.45ZM3493.72 1148.52C3493.72 1141.04 3492.63 1134.03 3490.45 1127.48C3488.43 1120.78 3485.31 1114.94 3481.1 1109.95C3476.89 1104.97 3471.52 1101.07 3464.97 1098.27C3458.59 1095.31 3451.11 1093.83 3442.54 1093.83C3425.86 1093.83 3412.7 1098.58 3403.04 1108.08C3393.53 1117.59 3387.45 1131.07 3384.81 1148.52H3493.72ZM3383.64 1183.34C3384.57 1195.65 3386.75 1206.33 3390.18 1215.36C3393.61 1224.25 3398.13 1231.65 3403.74 1237.57C3409.35 1243.33 3415.97 1247.7 3423.6 1250.66C3431.4 1253.46 3439.97 1254.86 3449.31 1254.86C3458.66 1254.86 3466.69 1253.77 3473.39 1251.59C3480.24 1249.41 3486.17 1247 3491.15 1244.35C3496.29 1241.7 3500.73 1239.28 3504.47 1237.1C3508.37 1234.92 3512.11 1233.83 3515.69 1233.83C3520.52 1233.83 3524.11 1235.62 3526.44 1239.2L3543.04 1260.24C3536.65 1267.72 3529.48 1274.03 3521.54 1279.17C3513.59 1284.16 3505.25 1288.21 3496.53 1291.33C3487.96 1294.29 3479.15 1296.39 3470.12 1297.64C3461.23 1298.88 3452.59 1299.51 3444.17 1299.51C3427.5 1299.51 3412 1296.78 3397.66 1291.33C3383.33 1285.72 3370.86 1277.54 3360.26 1266.78C3349.67 1255.88 3341.33 1242.48 3335.26 1226.58C3329.18 1210.53 3326.14 1191.99 3326.14 1170.96C3326.14 1154.59 3328.79 1139.25 3334.09 1124.91C3339.38 1110.42 3346.94 1097.88 3356.76 1087.28C3366.73 1076.53 3378.81 1068.04 3392.99 1061.8C3407.32 1055.57 3423.45 1052.46 3441.37 1052.46C3456.48 1052.46 3470.43 1054.87 3483.21 1059.7C3495.98 1064.53 3506.97 1071.62 3516.16 1080.97C3525.35 1090.16 3532.52 1101.54 3537.66 1115.09C3542.96 1128.5 3545.61 1143.84 3545.61 1161.14C3545.61 1169.87 3544.68 1175.79 3542.81 1178.9C3540.94 1181.86 3537.35 1183.34 3532.05 1183.34H3383.64ZM3670.74 1296V1056.2H3706.03C3713.51 1056.2 3718.42 1059.7 3720.76 1066.71L3724.5 1084.48C3728.7 1079.8 3733.07 1075.52 3737.58 1071.62C3742.26 1067.73 3747.17 1064.38 3752.31 1061.57C3757.61 1058.77 3763.22 1056.59 3769.14 1055.03C3775.21 1053.31 3781.84 1052.46 3789 1052.46C3804.12 1052.46 3816.51 1056.59 3826.17 1064.84C3835.98 1072.95 3843.31 1083.78 3848.14 1097.33C3851.88 1089.38 3856.55 1082.61 3862.16 1077C3867.77 1071.23 3873.93 1066.56 3880.63 1062.97C3887.33 1059.39 3894.42 1056.74 3901.9 1055.03C3909.53 1053.31 3917.17 1052.46 3924.8 1052.46C3938.05 1052.46 3949.81 1054.48 3960.09 1058.53C3970.38 1062.58 3979.03 1068.51 3986.04 1076.3C3993.05 1084.09 3998.35 1093.59 4001.93 1104.81C4005.67 1116.03 4007.54 1128.88 4007.54 1143.38V1296H3949.81V1143.38C3949.81 1128.11 3946.46 1116.65 3939.76 1109.02C3933.06 1101.23 3923.24 1097.33 3910.31 1097.33C3904.39 1097.33 3898.86 1098.34 3893.71 1100.37C3888.73 1102.4 3884.29 1105.36 3880.39 1109.25C3876.65 1112.99 3873.69 1117.74 3871.51 1123.51C3869.33 1129.27 3868.24 1135.9 3868.24 1143.38V1296H3810.27V1143.38C3810.27 1127.33 3807 1115.64 3800.46 1108.32C3794.07 1100.99 3784.64 1097.33 3772.18 1097.33C3763.76 1097.33 3755.89 1099.44 3748.57 1103.64C3741.4 1107.69 3734.7 1113.3 3728.47 1120.47V1296H3670.74ZM4355.66 1056.2L4225.01 1361.91C4223.29 1365.96 4221.04 1369 4218.23 1371.03C4215.58 1373.21 4211.45 1374.3 4205.84 1374.3H4162.84L4207.71 1278L4110.72 1056.2H4161.43C4165.95 1056.2 4169.46 1057.29 4171.95 1059.47C4174.6 1061.65 4176.55 1064.14 4177.8 1066.95L4228.75 1191.29C4230.46 1195.5 4231.86 1199.7 4232.96 1203.91C4234.2 1208.12 4235.37 1212.4 4236.46 1216.77C4237.86 1212.4 4239.27 1208.12 4240.67 1203.91C4242.07 1199.55 4243.63 1195.26 4245.34 1191.06L4293.49 1066.95C4294.74 1063.83 4296.76 1061.26 4299.57 1059.23C4302.53 1057.21 4305.8 1056.2 4309.38 1056.2H4355.66Z" fill="black"/>
</svg>
